<svg width="275" height="86" viewBox="0 0 275 86" fill="none" xmlns="http://www.w3.org/2000/svg">
<path d="M42.9792 82.9585C65.059 82.9585 82.9583 66.0012 82.9583 45.0835H66.125L59.8125 51.396L53.5 45.0835H3C3 66.0012 20.8993 82.9585 42.9792 82.9585Z" stroke="black" stroke-width="6" stroke-linecap="round" stroke-linejoin="round"/>
<path d="M78.6341 45.0833C78.894 43.3678 78.6341 41.6112 78.6341 39.8229C78.6341 20.6483 63.1403 3 44.0278 3C35.984 3 26.4836 5.75339 20.6069 10.372C21.4966 11.9178 22.0056 13.7117 22.0056 15.625C22.0056 21.4354 17.3105 26.1458 11.5189 26.1458C10.7831 26.1458 10.065 26.0699 9.37194 25.9251C8.04661 29.6072 7.32416 35.6825 7.32416 39.8229C7.32416 41.6112 7.06339 43.3678 7.3233 45.0833" stroke="black" stroke-width="6" stroke-linecap="round" stroke-linejoin="round"/>
<path d="M5.104 57.7085H26.1457" stroke="black" stroke-width="6" stroke-linecap="round" stroke-linejoin="round"/>
<path d="M103.149 76.4792V6.66106H128.718C133.672 6.66106 137.774 7.47925 141.024 9.11561C144.274 10.7292 146.706 12.9224 148.32 15.6952C149.934 18.4452 150.74 21.5474 150.74 25.002C150.74 27.9111 150.206 30.3656 149.138 32.3656C148.07 34.3429 146.638 35.9338 144.843 37.1383C143.07 38.3202 141.115 39.1838 138.979 39.7292V40.4111C141.297 40.5247 143.559 41.2747 145.763 42.6611C147.99 44.0247 149.831 45.9679 151.286 48.4906C152.74 51.0133 153.468 54.0815 153.468 57.6952C153.468 61.2633 152.627 64.4679 150.945 67.3088C149.286 70.127 146.718 72.3656 143.24 74.0247C139.763 75.6611 135.32 76.4792 129.911 76.4792H103.149ZM113.684 67.4452H128.888C133.934 67.4452 137.547 66.4679 139.729 64.5133C141.911 62.5588 143.002 60.1156 143.002 57.1838C143.002 54.9792 142.445 52.9565 141.331 51.1156C140.218 49.2747 138.627 47.8088 136.559 46.7179C134.513 45.627 132.081 45.0815 129.263 45.0815H113.684V67.4452ZM113.684 36.8656H127.797C130.161 36.8656 132.286 36.4111 134.172 35.502C136.081 34.5929 137.593 33.3202 138.706 31.6838C139.843 30.0247 140.411 28.0702 140.411 25.8202C140.411 22.9338 139.399 20.5133 137.377 18.5588C135.354 16.6042 132.252 15.627 128.07 15.627H113.684V36.8656ZM165.144 76.4792V24.1156H175.337V76.4792H165.144ZM170.292 16.0361C168.519 16.0361 166.996 15.4452 165.723 14.2633C164.473 13.0588 163.848 11.627 163.848 9.96788C163.848 8.28606 164.473 6.85425 165.723 5.67243C166.996 4.46788 168.519 3.86561 170.292 3.86561C172.064 3.86561 173.576 4.46788 174.826 5.67243C176.098 6.85425 176.735 8.28606 176.735 9.96788C176.735 11.627 176.098 13.0588 174.826 14.2633C173.576 15.4452 172.064 16.0361 170.292 16.0361ZM213.493 24.1156V32.2974H184.891V24.1156H213.493ZM192.561 11.5702H202.755V61.1042C202.755 63.0815 203.05 64.5702 203.641 65.5702C204.232 66.5474 204.993 67.2179 205.925 67.5815C206.88 67.9224 207.914 68.0929 209.027 68.0929C209.845 68.0929 210.561 68.0361 211.175 67.9224C211.789 67.8088 212.266 67.7179 212.607 67.6497L214.448 76.0702C213.857 76.2974 213.016 76.5247 211.925 76.752C210.834 77.002 209.47 77.1383 207.834 77.1611C205.152 77.2065 202.652 76.7292 200.334 75.7292C198.016 74.7292 196.141 73.1838 194.709 71.0929C193.277 69.002 192.561 66.377 192.561 63.2179V11.5702ZM246.774 77.5361C241.615 77.5361 237.172 76.4338 233.445 74.2292C229.74 72.002 226.877 68.877 224.854 64.8542C222.854 60.8088 221.854 56.0702 221.854 50.6383C221.854 45.2747 222.854 40.5474 224.854 36.4565C226.877 32.3656 229.695 29.1724 233.309 26.877C236.945 24.5815 241.195 23.4338 246.059 23.4338C249.013 23.4338 251.877 23.9224 254.649 24.8997C257.422 25.877 259.911 27.4111 262.115 29.502C264.32 31.5929 266.059 34.3088 267.331 37.6497C268.604 40.9679 269.24 45.002 269.24 49.752V53.3656H227.615V45.7292H259.252C259.252 43.0474 258.706 40.6724 257.615 38.6042C256.524 36.5133 254.99 34.8656 253.013 33.6611C251.059 32.4565 248.763 31.8542 246.127 31.8542C243.263 31.8542 240.763 32.5588 238.627 33.9679C236.513 35.3542 234.877 37.1724 233.718 39.4224C232.581 41.6497 232.013 44.0702 232.013 46.6838V52.6497C232.013 56.1497 232.627 59.127 233.854 61.5815C235.104 64.0361 236.843 65.9111 239.07 67.2065C241.297 68.4792 243.899 69.1156 246.877 69.1156C248.809 69.1156 250.57 68.8429 252.161 68.2974C253.752 67.7292 255.127 66.8883 256.286 65.7747C257.445 64.6611 258.331 63.2861 258.945 61.6497L268.593 63.3883C267.82 66.2292 266.434 68.7179 264.434 70.8542C262.456 72.9679 259.968 74.6156 256.968 75.7974C253.99 76.9565 250.593 77.5361 246.774 77.5361Z" fill="black"/>
</svg>
