<svg width="318" height="154" viewBox="0 0 318 154" fill="none" xmlns="http://www.w3.org/2000/svg">
<path d="M77.1667 48.3023V40.0833C77.1667 19.6028 60.5637 3 40.0833 3C19.6029 3 3 19.6028 3 40.0833V105.835C3 106.386 3.44686 106.833 3.99828 106.833H76.1684C76.7198 106.833 77.1667 106.386 77.1667 105.835V97.6161" stroke="black" stroke-width="5"/>
<path d="M28.958 106.833V140.208C28.958 146.353 33.9387 151.333 40.083 151.333C46.2273 151.333 51.208 146.353 51.208 140.208V106.833" stroke="black" stroke-width="5" stroke-linecap="round" stroke-linejoin="round"/>
<path d="M3 47.5002C13.2402 57.7404 29.8431 57.7404 40.0833 47.5002C50.3235 37.26 66.9265 37.26 77.1667 47.5002" stroke="black" stroke-width="5" stroke-linecap="round" stroke-linejoin="round"/>
<path d="M97.0568 91.5504C94.4171 91.5504 92.1444 90.9527 90.2386 89.7571C88.3447 88.5497 86.8887 86.8866 85.8707 84.7678C84.8527 82.6489 84.3438 80.2223 84.3438 77.4879C84.3438 74.718 84.8646 72.2737 85.9062 70.1548C86.9479 68.0241 88.4157 66.361 90.3097 65.1655C92.2036 63.9699 94.4349 63.3722 97.0036 63.3722C99.075 63.3722 100.922 63.7569 102.543 64.5263C104.165 65.2839 105.473 66.3492 106.467 67.7223C107.473 69.0954 108.071 70.6993 108.261 72.5341H103.094C102.81 71.2557 102.159 70.1548 101.141 69.2315C100.134 68.3082 98.785 67.8466 97.0923 67.8466C95.6127 67.8466 94.3165 68.2372 93.2038 69.0185C92.103 69.7879 91.2448 70.8887 90.6293 72.321C90.0137 73.7415 89.706 75.4223 89.706 77.3636C89.706 79.3523 90.0078 81.0687 90.6115 82.5128C91.2152 83.9569 92.0675 85.0755 93.1683 85.8686C94.281 86.6617 95.589 87.0582 97.0923 87.0582C98.0985 87.0582 99.0099 86.8748 99.8267 86.5078C100.655 86.129 101.348 85.5904 101.904 84.892C102.472 84.1937 102.869 83.3532 103.094 82.3707H108.261C108.071 84.1345 107.497 85.7088 106.538 87.0938C105.58 88.4787 104.295 89.5677 102.685 90.3608C101.087 91.1539 99.2112 91.5504 97.0568 91.5504ZM125.692 91.5504C123.005 91.5504 120.691 90.9763 118.75 89.8281C116.82 88.6681 115.329 87.0405 114.275 84.9453C113.234 82.8383 112.713 80.3703 112.713 77.5412C112.713 74.7476 113.234 72.2855 114.275 70.1548C115.329 68.0241 116.797 66.361 118.679 65.1655C120.573 63.9699 122.786 63.3722 125.319 63.3722C126.858 63.3722 128.35 63.6267 129.794 64.1357C131.238 64.6446 132.534 65.4437 133.682 66.5327C134.831 67.6217 135.736 69.0362 136.399 70.7763C137.062 72.5045 137.393 74.6056 137.393 77.0795V78.9616H115.714V74.9844H132.191C132.191 73.5876 131.907 72.3506 131.339 71.2734C130.77 70.1844 129.971 69.3262 128.942 68.6989C127.924 68.0715 126.728 67.7578 125.355 67.7578C123.863 67.7578 122.561 68.1248 121.449 68.8587C120.348 69.5807 119.496 70.5277 118.892 71.6996C118.3 72.8596 118.004 74.1203 118.004 75.4815V78.5888C118.004 80.4117 118.324 81.9624 118.963 83.2408C119.614 84.5192 120.519 85.4957 121.68 86.1705C122.84 86.8333 124.195 87.1648 125.746 87.1648C126.752 87.1648 127.669 87.0227 128.498 86.7386C129.326 86.4427 130.042 86.0047 130.646 85.4247C131.25 84.8447 131.711 84.1286 132.031 83.2763L137.056 84.1818C136.653 85.6615 135.931 86.9576 134.89 88.0703C133.86 89.1712 132.564 90.0294 131.001 90.6449C129.451 91.2486 127.681 91.5504 125.692 91.5504ZM154.772 91.5504C152.132 91.5504 149.859 90.9527 147.953 89.7571C146.06 88.5497 144.604 86.8866 143.586 84.7678C142.568 82.6489 142.059 80.2223 142.059 77.4879C142.059 74.718 142.579 72.2737 143.621 70.1548C144.663 68.0241 146.131 66.361 148.025 65.1655C149.918 63.9699 152.15 63.3722 154.718 63.3722C156.79 63.3722 158.636 63.7569 160.258 64.5263C161.88 65.2839 163.188 66.3492 164.182 67.7223C165.188 69.0954 165.786 70.6993 165.975 72.5341H160.809C160.525 71.2557 159.873 70.1548 158.855 69.2315C157.849 68.3082 156.5 67.8466 154.807 67.8466C153.328 67.8466 152.031 68.2372 150.919 69.0185C149.818 69.7879 148.96 70.8887 148.344 72.321C147.729 73.7415 147.421 75.4223 147.421 77.3636C147.421 79.3523 147.723 81.0687 148.326 82.5128C148.93 83.9569 149.782 85.0755 150.883 85.8686C151.996 86.6617 153.304 87.0582 154.807 87.0582C155.813 87.0582 156.725 86.8748 157.542 86.5078C158.37 86.129 159.063 85.5904 159.619 84.892C160.187 84.1937 160.584 83.3532 160.809 82.3707H165.975C165.786 84.1345 165.212 85.7088 164.253 87.0938C163.294 88.4787 162.01 89.5677 160.4 90.3608C158.802 91.1539 156.926 91.5504 154.772 91.5504ZM171.653 91V63.7273H176.784V68.0597H177.068C177.566 66.5919 178.441 65.4377 179.696 64.5973C180.963 63.745 182.395 63.3189 183.993 63.3189C184.325 63.3189 184.715 63.3307 185.165 63.3544C185.627 63.3781 185.988 63.4077 186.248 63.4432V68.5213C186.035 68.4621 185.656 68.397 185.112 68.326C184.567 68.2431 184.023 68.2017 183.478 68.2017C182.223 68.2017 181.105 68.468 180.122 69.0007C179.152 69.5215 178.382 70.2495 177.814 71.1847C177.246 72.108 176.962 73.1615 176.962 74.3452V91H171.653ZM201.62 91.5504C198.933 91.5504 196.619 90.9763 194.678 89.8281C192.748 88.6681 191.257 87.0405 190.203 84.9453C189.161 82.8383 188.641 80.3703 188.641 77.5412C188.641 74.7476 189.161 72.2855 190.203 70.1548C191.257 68.0241 192.724 66.361 194.607 65.1655C196.5 63.9699 198.714 63.3722 201.247 63.3722C202.786 63.3722 204.277 63.6267 205.722 64.1357C207.166 64.6446 208.462 65.4437 209.61 66.5327C210.758 67.6217 211.664 69.0362 212.327 70.7763C212.99 72.5045 213.321 74.6056 213.321 77.0795V78.9616H191.641V74.9844H208.119C208.119 73.5876 207.835 72.3506 207.266 71.2734C206.698 70.1844 205.899 69.3262 204.869 68.6989C203.851 68.0715 202.656 67.7578 201.283 67.7578C199.791 67.7578 198.489 68.1248 197.376 68.8587C196.276 69.5807 195.423 70.5277 194.82 71.6996C194.228 72.8596 193.932 74.1203 193.932 75.4815V78.5888C193.932 80.4117 194.251 81.9624 194.891 83.2408C195.542 84.5192 196.447 85.4957 197.607 86.1705C198.767 86.8333 200.123 87.1648 201.673 87.1648C202.679 87.1648 203.597 87.0227 204.425 86.7386C205.254 86.4427 205.97 86.0047 206.574 85.4247C207.178 84.8447 207.639 84.1286 207.959 83.2763L212.984 84.1818C212.581 85.6615 211.859 86.9576 210.817 88.0703C209.788 89.1712 208.491 90.0294 206.929 90.6449C205.378 91.2486 203.609 91.5504 201.62 91.5504ZM227.148 91.6037C225.42 91.6037 223.858 91.2841 222.461 90.6449C221.064 89.9938 219.957 89.0528 219.14 87.8217C218.336 86.5907 217.933 85.0814 217.933 83.294C217.933 81.7552 218.229 80.4886 218.821 79.4943C219.413 78.5 220.212 77.7128 221.218 77.1328C222.224 76.5528 223.349 76.1148 224.591 75.8189C225.834 75.523 227.101 75.2981 228.391 75.1442C230.025 74.9548 231.35 74.8009 232.368 74.6825C233.386 74.5523 234.126 74.3452 234.588 74.0611C235.05 73.777 235.28 73.3153 235.28 72.6761V72.5518C235.28 71.0012 234.842 69.7997 233.966 68.9474C233.102 68.0952 231.812 67.669 230.096 67.669C228.308 67.669 226.9 68.0656 225.87 68.8587C224.852 69.6399 224.148 70.5099 223.757 71.4688L218.768 70.3324C219.359 68.6752 220.224 67.3376 221.36 66.3196C222.508 65.2898 223.828 64.544 225.319 64.0824C226.811 63.6089 228.379 63.3722 230.025 63.3722C231.114 63.3722 232.268 63.5024 233.487 63.7628C234.718 64.0114 235.866 64.473 236.932 65.1477C238.009 65.8224 238.891 66.7872 239.577 68.0419C240.264 69.2848 240.607 70.9006 240.607 72.8892V91H235.422V87.2713H235.209C234.866 87.9579 234.351 88.6326 233.665 89.2955C232.978 89.9583 232.096 90.5088 231.019 90.9467C229.942 91.3847 228.652 91.6037 227.148 91.6037ZM228.302 87.3423C229.77 87.3423 231.025 87.0523 232.067 86.4723C233.12 85.8923 233.919 85.1347 234.464 84.1996C235.02 83.2526 235.298 82.2405 235.298 81.1634V77.6477C235.109 77.8371 234.742 78.0147 234.197 78.1804C233.665 78.3343 233.055 78.4704 232.368 78.5888C231.682 78.6953 231.013 78.7959 230.362 78.8906C229.711 78.9735 229.166 79.0445 228.729 79.1037C227.699 79.2339 226.758 79.4529 225.905 79.7607C225.065 80.0684 224.39 80.5123 223.881 81.0923C223.384 81.6605 223.135 82.4181 223.135 83.3651C223.135 84.679 223.621 85.6733 224.591 86.348C225.562 87.0109 226.799 87.3423 228.302 87.3423ZM247.678 91V63.7273H252.774V68.1662H253.112C253.68 66.6629 254.609 65.491 255.899 64.6506C257.189 63.7983 258.734 63.3722 260.533 63.3722C262.356 63.3722 263.883 63.7983 265.114 64.6506C266.357 65.5028 267.275 66.6747 267.866 68.1662H268.151C268.802 66.7102 269.837 65.5502 271.258 64.6861C272.678 63.8101 274.371 63.3722 276.336 63.3722C278.81 63.3722 280.828 64.1475 282.391 65.6982C283.965 67.2488 284.752 69.5866 284.752 72.7116V91H279.443V73.2088C279.443 71.3622 278.94 70.0246 277.934 69.196C276.928 68.3674 275.726 67.9531 274.33 67.9531C272.601 67.9531 271.258 68.4858 270.299 69.5511C269.34 70.6046 268.861 71.96 268.861 73.6172V91H263.57V72.8714C263.57 71.3918 263.108 70.2022 262.185 69.3026C261.261 68.4029 260.06 67.9531 258.58 67.9531C257.574 67.9531 256.645 68.2195 255.793 68.7521C254.952 69.273 254.272 70.0009 253.751 70.9361C253.242 71.8712 252.987 72.9543 252.987 74.1854V91H247.678Z" fill="black"/>
<rect x="74" y="54" width="6" height="37" rx="1" fill="black"/>
</svg>
