<svg width="234" height="64" viewBox="0 0 234 64" fill="none" xmlns="http://www.w3.org/2000/svg">
<path d="M51 30H3" stroke="black" stroke-width="5" stroke-linecap="round" stroke-linejoin="round"/>
<path d="M14 3L43 19H14V3Z" stroke="black" stroke-width="5" stroke-linejoin="round"/>
<path d="M14 57V41H43L14 57Z" stroke="black" stroke-width="5" stroke-linejoin="round"/>
<path d="M80.4496 50L67.3388 2.72727H74.8406L84.0504 39.3359H84.489L94.0682 2.72727H101.501L111.08 39.359H111.518L120.705 2.72727H128.23L115.096 50H107.918L97.9691 14.5916H97.5998L87.6513 50H80.4496ZM141.006 50.7848C138.76 50.7848 136.728 50.3693 134.912 49.5384C133.097 48.692 131.658 47.4686 130.596 45.8683C129.55 44.2679 129.026 42.3059 129.026 39.9822C129.026 37.9818 129.411 36.3352 130.181 35.0426C130.95 33.75 131.989 32.7267 133.297 31.9727C134.605 31.2186 136.067 30.6493 137.682 30.2646C139.298 29.8799 140.945 29.5875 142.622 29.3874C144.746 29.1412 146.469 28.9412 147.792 28.7873C149.116 28.618 150.078 28.3487 150.678 27.9794C151.278 27.6101 151.578 27.0099 151.578 26.179V26.0174C151.578 24.0015 151.009 22.4396 149.87 21.3317C148.747 20.2237 147.069 19.6697 144.838 19.6697C142.514 19.6697 140.683 20.1852 139.344 21.2163C138.021 22.2319 137.105 23.3629 136.597 24.6094L130.111 23.1321C130.881 20.9777 132.004 19.2389 133.481 17.9155C134.974 16.5767 136.69 15.6072 138.629 15.0071C140.568 14.3916 142.607 14.0838 144.746 14.0838C146.161 14.0838 147.662 14.2531 149.247 14.5916C150.847 14.9148 152.34 15.5149 153.725 16.392C155.125 17.2692 156.271 18.5233 157.164 20.1545C158.056 21.7702 158.503 23.8707 158.503 26.456V50H151.763V45.1527H151.486C151.039 46.0452 150.37 46.9223 149.477 47.7841C148.585 48.6458 147.439 49.3614 146.038 49.9308C144.638 50.5001 142.961 50.7848 141.006 50.7848ZM142.507 45.245C144.415 45.245 146.046 44.868 147.4 44.114C148.77 43.36 149.808 42.3751 150.516 41.1594C151.239 39.9284 151.601 38.6127 151.601 37.2124V32.642C151.355 32.8883 150.878 33.1191 150.17 33.3345C149.477 33.5346 148.685 33.7115 147.792 33.8654C146.9 34.0039 146.03 34.1347 145.184 34.2578C144.338 34.3655 143.63 34.4579 143.061 34.5348C141.722 34.7041 140.498 34.9888 139.39 35.3888C138.298 35.7889 137.421 36.366 136.759 37.12C136.113 37.8587 135.79 38.8435 135.79 40.0746C135.79 41.7827 136.421 43.0753 137.682 43.9524C138.944 44.8142 140.552 45.245 142.507 45.245ZM170.788 63.2955C169.757 63.2955 168.819 63.2108 167.972 63.0415C167.126 62.8877 166.495 62.7184 166.079 62.5337L167.741 56.8786C169.003 57.2171 170.127 57.3633 171.111 57.3171C172.096 57.271 172.966 56.9016 173.72 56.2092C174.489 55.5167 175.166 54.3857 175.751 52.8161L176.605 50.4616L163.633 14.5455H171.019L179.998 42.0597H180.367L189.347 14.5455H196.756L182.145 54.7319C181.468 56.5785 180.606 58.1404 179.56 59.4176C178.513 60.7102 177.267 61.6797 175.82 62.326C174.374 62.9723 172.696 63.2955 170.788 63.2955ZM229.81 23.2013L223.555 24.3093C223.293 23.5091 222.878 22.7474 222.308 22.0241C221.754 21.3009 221 20.7085 220.046 20.2468C219.092 19.7852 217.899 19.5543 216.468 19.5543C214.514 19.5543 212.883 19.9929 211.575 20.87C210.267 21.7318 209.613 22.8474 209.613 24.217C209.613 25.4019 210.051 26.3559 210.929 27.0792C211.806 27.8024 213.221 28.3949 215.176 28.8565L220.808 30.1491C224.07 30.9032 226.501 32.065 228.102 33.6346C229.702 35.2042 230.502 37.2431 230.502 39.7514C230.502 41.875 229.887 43.7678 228.656 45.4297C227.44 47.0762 225.74 48.3688 223.555 49.3075C221.385 50.2462 218.869 50.7156 216.007 50.7156C212.036 50.7156 208.797 49.8692 206.289 48.1765C203.781 46.4684 202.242 44.0447 201.672 40.9055L208.343 39.8899C208.759 41.6288 209.613 42.9445 210.905 43.837C212.198 44.7141 213.883 45.1527 215.96 45.1527C218.223 45.1527 220.031 44.6834 221.385 43.7447C222.739 42.7906 223.416 41.6288 223.416 40.2592C223.416 39.1513 223.001 38.2203 222.17 37.4663C221.354 36.7122 220.1 36.1429 218.407 35.7582L212.406 34.4425C209.097 33.6884 206.651 32.4882 205.066 30.8416C203.496 29.1951 202.711 27.11 202.711 24.5863C202.711 22.4935 203.296 20.6623 204.465 19.0927C205.635 17.5231 207.251 16.2997 209.313 15.4226C211.375 14.5301 213.737 14.0838 216.399 14.0838C220.231 14.0838 223.247 14.9148 225.447 16.5767C227.648 18.2232 229.102 20.4315 229.81 23.2013Z" fill="black"/>
</svg>
