<svg width="173" height="51" viewBox="0 0 173 51" fill="none" xmlns="http://www.w3.org/2000/svg">
<path fill-rule="evenodd" clip-rule="evenodd" d="M25 46C36.0457 46 45 37.0457 45 26C45 14.9543 36.0457 6 25 6C13.9543 6 5 14.9543 5 26C5 37.0457 13.9543 46 25 46ZM22.25 27C22.25 23.6175 22.6626 20.5938 23.3062 18.4485C23.6299 17.3695 23.9955 16.5691 24.356 16.0608C24.7349 15.5266 24.967 15.5 25 15.5C25.033 15.5 25.2651 15.5266 25.644 16.0608C26.0045 16.5691 26.3701 17.3695 26.6938 18.4485C27.3374 20.5938 27.75 23.6175 27.75 27C27.75 30.3825 27.3374 33.4062 26.6938 35.5515C26.3701 36.6305 26.0045 37.4309 25.644 37.9392C25.2651 38.4734 25.033 38.5 25 38.5C24.967 38.5 24.7349 38.4734 24.356 37.9392C23.9955 37.4309 23.6299 36.6305 23.3062 35.5515C22.6626 33.4062 22.25 30.3825 22.25 27ZM28.6095 17.8738C28.6824 18.1171 28.7524 18.3692 28.8193 18.6296C28.9933 18.1155 29.1915 17.6569 29.416 17.277C29.7457 16.7192 30.333 16 31.25 16C32.167 16 32.7543 16.7192 33.084 17.277C33.4532 17.9018 33.7511 18.7392 33.9879 19.6864C34.1655 20.3967 34.3164 21.2005 34.4359 22.0749C34.7455 21.8203 35.1437 21.625 35.625 21.625C36.2726 21.625 36.7698 21.9785 37.1031 22.3545C37.4375 22.7317 37.6929 23.2203 37.8872 23.7383C38.2784 24.7818 38.5 26.1561 38.5 27.625C38.5 29.0939 38.2784 30.4682 37.8872 31.5117C37.6929 32.0297 37.4375 32.5183 37.1031 32.8955C36.7698 33.2715 36.2726 33.625 35.625 33.625C35.049 33.625 34.592 33.3453 34.2635 33.0189C34.1808 33.4778 34.0886 33.9107 33.9879 34.3136C33.7511 35.2608 33.4532 36.0982 33.084 36.723C32.7543 37.2808 32.167 38 31.25 38C30.333 38 29.7457 37.2808 29.416 36.723C29.1915 36.3431 28.9933 35.8845 28.8193 35.3704C28.7524 35.6308 28.6824 35.8829 28.6095 36.1262C28.2546 37.3092 27.8121 38.3394 27.2753 39.0962C26.757 39.827 26.0026 40.5 25 40.5C23.9974 40.5 23.243 39.827 22.7247 39.0962C22.1879 38.3394 21.7454 37.3092 21.3905 36.1262C21.3175 35.8829 21.2476 35.6308 21.1807 35.3704C21.0067 35.8845 20.8085 36.3431 20.584 36.723C20.2543 37.2808 19.667 38 18.75 38C17.833 38 17.2457 37.2808 16.916 36.723C16.5468 36.0982 16.2489 35.2608 16.0121 34.3136C15.9114 33.9107 15.8192 33.4778 15.7365 33.0189C15.408 33.3453 14.951 33.625 14.375 33.625C13.7274 33.625 13.2302 33.2715 12.8969 32.8955C12.5625 32.5183 12.3071 32.0297 12.1128 31.5117C11.7216 30.4682 11.5 29.0939 11.5 27.625C11.5 26.1561 11.7216 24.7818 12.1128 23.7383C12.3071 23.2203 12.5625 22.7317 12.8969 22.3545C13.2302 21.9785 13.7274 21.625 14.375 21.625C14.8563 21.625 15.2545 21.8203 15.5641 22.0749C15.6836 21.2005 15.8345 20.3967 16.0121 19.6864C16.2489 18.7392 16.5468 17.9018 16.916 17.277C17.2457 16.7192 17.833 16 18.75 16C19.667 16 20.2543 16.7192 20.584 17.277C20.8085 17.6569 21.0067 18.1155 21.1807 18.6296C21.2476 18.3692 21.3175 18.1171 21.3905 17.8738C21.7454 16.6908 22.1879 15.6606 22.7247 14.9038C23.243 14.173 23.9974 13.5 25 13.5C26.0026 13.5 26.757 14.173 27.2753 14.9038C27.8121 15.6606 28.2546 16.6908 28.6095 17.8738ZM30.4524 33.8285C30.025 32.119 29.75 29.7043 29.75 27C29.75 24.2957 30.025 21.881 30.4524 20.1715C30.668 19.309 30.9088 18.682 31.1378 18.2947C31.1803 18.2228 31.2178 18.1662 31.25 18.122C31.2822 18.1662 31.3197 18.2228 31.3622 18.2947C31.5912 18.682 31.832 19.309 32.0476 20.1715C32.475 21.881 32.75 24.2957 32.75 27C32.75 29.7043 32.475 32.119 32.0476 33.8285C31.832 34.691 31.5912 35.318 31.3622 35.7053C31.3197 35.7772 31.2822 35.8338 31.25 35.878C31.2178 35.8338 31.1803 35.7772 31.1378 35.7053C30.9088 35.318 30.668 34.691 30.4524 33.8285ZM31.383 17.9746C31.3849 17.9735 31.3858 17.9729 31.3858 17.9728C31.3858 17.9728 31.3855 17.9729 31.385 17.9732C31.3846 17.9735 31.3839 17.974 31.383 17.9746ZM31.117 17.9746C31.1151 17.9735 31.1142 17.9729 31.1142 17.9728C31.1142 17.9728 31.1152 17.9733 31.117 17.9746ZM31.1142 36.0272C31.1142 36.0271 31.1151 36.0265 31.117 36.0254C31.1152 36.0267 31.1142 36.0272 31.1142 36.0272ZM31.383 36.0254C31.3849 36.0265 31.3858 36.0271 31.3858 36.0272C31.3858 36.0272 31.3848 36.0267 31.383 36.0254ZM17.25 27C17.25 24.2957 17.525 21.881 17.9524 20.1715C18.168 19.309 18.4088 18.682 18.6378 18.2947C18.6803 18.2228 18.7178 18.1662 18.75 18.122C18.7822 18.1662 18.8197 18.2228 18.8622 18.2947C19.0912 18.682 19.332 19.309 19.5476 20.1715C19.975 21.881 20.25 24.2957 20.25 27C20.25 29.7043 19.975 32.119 19.5476 33.8285C19.332 34.691 19.0912 35.318 18.8622 35.7053C18.8197 35.7772 18.7822 35.8338 18.75 35.878C18.7178 35.8338 18.6803 35.7772 18.6378 35.7053C18.4088 35.318 18.168 34.691 17.9524 33.8285C17.525 32.119 17.25 29.7043 17.25 27ZM18.883 17.9746C18.8849 17.9735 18.8858 17.9729 18.8858 17.9728C18.8858 17.9728 18.8854 17.973 18.8847 17.9735C18.8842 17.9737 18.8836 17.9741 18.883 17.9746ZM18.617 17.9746C18.6151 17.9735 18.6142 17.9729 18.6142 17.9728C18.6142 17.9728 18.6152 17.9733 18.617 17.9746ZM18.6142 36.0272C18.6142 36.0271 18.6151 36.0265 18.617 36.0254C18.6152 36.0267 18.6142 36.0272 18.6142 36.0272ZM18.883 36.0254C18.8849 36.0265 18.8858 36.0271 18.8858 36.0272C18.8858 36.0272 18.8848 36.0267 18.883 36.0254ZM13.5 27.625C13.5 26.3325 13.6982 25.2068 13.9855 24.4406C14.1229 24.0743 14.2634 23.8364 14.375 23.7028C14.4866 23.8364 14.6271 24.0743 14.7645 24.4406C15.0518 25.2068 15.25 26.3325 15.25 27.625C15.25 28.9175 15.0518 30.0432 14.7645 30.8094C14.6271 31.1757 14.4866 31.4136 14.375 31.5472C14.2634 31.4136 14.1229 31.1757 13.9855 30.8094C13.6982 30.0432 13.5 28.9175 13.5 27.625ZM14.4763 23.6042C14.4763 23.6043 14.4747 23.6054 14.4715 23.607C14.4747 23.6049 14.4763 23.6041 14.4763 23.6042ZM14.2751 23.6052C14.2759 23.6057 14.277 23.6063 14.2785 23.607C14.2753 23.6049 14.2737 23.6041 14.2737 23.6042C14.2737 23.6043 14.2742 23.6046 14.2751 23.6052ZM14.2737 31.6458C14.2737 31.6457 14.2753 31.6446 14.2785 31.643C14.2753 31.6451 14.2737 31.6459 14.2737 31.6458ZM14.4763 31.6458C14.4763 31.6457 14.4747 31.6446 14.4715 31.643C14.4724 31.6436 14.4732 31.6441 14.4738 31.6445C14.4755 31.6455 14.4763 31.6459 14.4763 31.6458ZM34.75 27.625C34.75 26.3325 34.9482 25.2068 35.2355 24.4406C35.3729 24.0743 35.5134 23.8364 35.625 23.7028C35.7366 23.8364 35.8771 24.0743 36.0145 24.4406C36.3018 25.2068 36.5 26.3325 36.5 27.625C36.5 28.9175 36.3018 30.0432 36.0145 30.8094C35.8771 31.1757 35.7366 31.4136 35.625 31.5472C35.5134 31.4136 35.3729 31.1757 35.2355 30.8094C34.9482 30.0432 34.75 28.9175 34.75 27.625ZM35.7263 23.6042C35.7263 23.6043 35.7247 23.6054 35.7215 23.607C35.7247 23.6049 35.7263 23.6041 35.7263 23.6042ZM35.5237 23.6042C35.5237 23.6043 35.5253 23.6054 35.5285 23.607C35.5262 23.6054 35.5247 23.6046 35.524 23.6043C35.5238 23.6042 35.5237 23.6042 35.5237 23.6042ZM35.5237 31.6458C35.5237 31.6457 35.5253 31.6446 35.5285 31.643C35.5253 31.6451 35.5237 31.6459 35.5237 31.6458ZM35.7239 31.6442C35.7232 31.6439 35.7224 31.6434 35.7215 31.643C35.7247 31.6451 35.7263 31.6459 35.7263 31.6458C35.7263 31.6457 35.7255 31.6451 35.7239 31.6442Z" fill="black"/>
<path d="M46.2571 26.3636C46.2571 31.411 45.3338 35.7505 43.4872 39.3821C41.6406 42.9983 39.1093 45.7836 35.8931 47.7379C32.6924 49.6768 29.053 50.6463 24.9751 50.6463C20.8819 50.6463 17.2272 49.6768 14.011 47.7379C10.8103 45.7836 8.28658 42.9906 6.43999 39.359C4.5934 35.7274 3.6701 31.3956 3.6701 26.3636C3.6701 21.3163 4.5934 16.9845 6.43999 13.3683C8.28658 9.73662 10.8103 6.95135 14.011 5.01243C17.2272 3.05812 20.8819 2.08096 24.9751 2.08096C29.053 2.08096 32.6924 3.05812 35.8931 5.01243C39.1093 6.95135 41.6406 9.73662 43.4872 13.3683C45.3338 16.9845 46.2571 21.3163 46.2571 26.3636ZM39.1939 26.3636C39.1939 22.5166 38.5707 19.2773 37.3242 16.6459C36.0932 13.9992 34.4005 11.9987 32.2461 10.6445C30.1071 9.27498 27.6835 8.5902 24.9751 8.5902C22.2514 8.5902 19.8201 9.27498 17.6811 10.6445C15.5421 11.9987 13.8494 13.9992 12.603 16.6459C11.3719 19.2773 10.7564 22.5166 10.7564 26.3636C10.7564 30.2107 11.3719 33.4576 12.603 36.1044C13.8494 38.7358 15.5421 40.7363 17.6811 42.1058C19.8201 43.46 22.2514 44.1371 24.9751 44.1371C27.6835 44.1371 30.1071 43.46 32.2461 42.1058C34.4005 40.7363 36.0932 38.7358 37.3242 36.1044C38.5707 33.4576 39.1939 30.2107 39.1939 26.3636ZM64.9134 50.7848C62.6668 50.7848 60.6355 50.3693 58.8197 49.5384C57.0039 48.692 55.5651 47.4686 54.5033 45.8683C53.4569 44.2679 52.9337 42.3059 52.9337 39.9822C52.9337 37.9818 53.3184 36.3352 54.0878 35.0426C54.8572 33.75 55.8959 32.7267 57.2039 31.9727C58.5119 31.2186 59.9738 30.6493 61.5896 30.2646C63.2053 29.8799 64.8519 29.5875 66.5292 29.3874C68.6528 29.1412 70.3763 28.9412 71.6997 28.7873C73.0231 28.618 73.9848 28.3487 74.585 27.9794C75.1851 27.6101 75.4852 27.0099 75.4852 26.179V26.0174C75.4852 24.0015 74.9158 22.4396 73.7771 21.3317C72.6537 20.2237 70.9764 19.6697 68.7451 19.6697C66.4215 19.6697 64.5903 20.1852 63.2515 21.2163C61.9281 22.2319 61.0125 23.3629 60.5047 24.6094L54.0186 23.1321C54.788 20.9777 55.9113 19.2389 57.3886 17.9155C58.8812 16.5767 60.597 15.6072 62.536 15.0071C64.4749 14.3916 66.5138 14.0838 68.6528 14.0838C70.0685 14.0838 71.5689 14.2531 73.1539 14.5916C74.7542 14.9148 76.2469 15.5149 77.6318 16.392C79.0322 17.2692 80.1786 18.5233 81.0711 20.1545C81.9636 21.7702 82.4099 23.8707 82.4099 26.456V50H75.6698V45.1527H75.3928C74.9466 46.0452 74.2772 46.9223 73.3847 47.7841C72.4922 48.6458 71.3457 49.3614 69.9454 49.9308C68.5451 50.5001 66.8677 50.7848 64.9134 50.7848ZM66.4138 45.245C68.3219 45.245 69.9531 44.868 71.3073 44.114C72.6768 43.36 73.7155 42.3751 74.4234 41.1594C75.1466 39.9284 75.5083 38.6127 75.5083 37.2124V32.642C75.262 32.8883 74.785 33.1191 74.0771 33.3345C73.3847 33.5346 72.5922 33.7115 71.6997 33.8654C70.8071 34.0039 69.9377 34.1347 69.0914 34.2578C68.245 34.3655 67.5371 34.4579 66.9678 34.5348C65.629 34.7041 64.4056 34.9888 63.2977 35.3888C62.2051 35.7889 61.328 36.366 60.6663 37.12C60.02 37.8587 59.6968 38.8435 59.6968 40.0746C59.6968 41.7827 60.3277 43.0753 61.5896 43.9524C62.8514 44.8142 64.4595 45.245 66.4138 45.245ZM118.17 23.2013L111.915 24.3093C111.653 23.5091 111.238 22.7474 110.669 22.0241C110.115 21.3009 109.361 20.7085 108.406 20.2468C107.452 19.7852 106.26 19.5543 104.829 19.5543C102.874 19.5543 101.243 19.9929 99.9352 20.87C98.6272 21.7318 97.9732 22.8474 97.9732 24.217C97.9732 25.4019 98.4118 26.3559 99.2889 27.0792C100.166 27.8024 101.582 28.3949 103.536 28.8565L109.168 30.1491C112.43 30.9032 114.862 32.065 116.462 33.6346C118.063 35.2042 118.863 37.2431 118.863 39.7514C118.863 41.875 118.247 43.7678 117.016 45.4297C115.8 47.0762 114.1 48.3688 111.915 49.3075C109.745 50.2462 107.229 50.7156 104.367 50.7156C100.397 50.7156 97.1576 49.8692 94.6493 48.1765C92.141 46.4684 90.6022 44.0447 90.0328 40.9055L96.7037 39.8899C97.1191 41.6288 97.9732 42.9445 99.2658 43.837C100.558 44.7141 102.243 45.1527 104.321 45.1527C106.583 45.1527 108.391 44.6834 109.745 43.7447C111.099 42.7906 111.776 41.6288 111.776 40.2592C111.776 39.1513 111.361 38.2203 110.53 37.4663C109.714 36.7122 108.46 36.1429 106.768 35.7582L100.766 34.4425C97.4577 33.6884 95.0109 32.4882 93.426 30.8416C91.8564 29.1951 91.0716 27.11 91.0716 24.5863C91.0716 22.4935 91.6563 20.6623 92.8258 19.0927C93.9953 17.5231 95.6111 16.2997 97.6731 15.4226C99.7351 14.5301 102.097 14.0838 104.759 14.0838C108.591 14.0838 111.607 14.9148 113.808 16.5767C116.008 18.2232 117.462 20.4315 118.17 23.2013ZM126.451 50V14.5455H133.353V50H126.451ZM129.937 9.07493C128.736 9.07493 127.705 8.67483 126.843 7.87464C125.997 7.05907 125.574 6.0896 125.574 4.96626C125.574 3.82753 125.997 2.85807 126.843 2.05788C127.705 1.2423 128.736 0.834516 129.937 0.834516C131.137 0.834516 132.16 1.2423 133.006 2.05788C133.868 2.85807 134.299 3.82753 134.299 4.96626C134.299 6.0896 133.868 7.05907 133.006 7.87464C132.16 8.67483 131.137 9.07493 129.937 9.07493ZM169.205 23.2013L162.95 24.3093C162.689 23.5091 162.273 22.7474 161.704 22.0241C161.15 21.3009 160.396 20.7085 159.442 20.2468C158.488 19.7852 157.295 19.5543 155.864 19.5543C153.91 19.5543 152.278 19.9929 150.97 20.87C149.662 21.7318 149.008 22.8474 149.008 24.217C149.008 25.4019 149.447 26.3559 150.324 27.0792C151.201 27.8024 152.617 28.3949 154.571 28.8565L160.203 30.1491C163.466 30.9032 165.897 32.065 167.497 33.6346C169.098 35.2042 169.898 37.2431 169.898 39.7514C169.898 41.875 169.282 43.7678 168.051 45.4297C166.836 47.0762 165.135 48.3688 162.95 49.3075C160.78 50.2462 158.264 50.7156 155.402 50.7156C151.432 50.7156 148.193 49.8692 145.684 48.1765C143.176 46.4684 141.637 44.0447 141.068 40.9055L147.739 39.8899C148.154 41.6288 149.008 42.9445 150.301 43.837C151.594 44.7141 153.279 45.1527 155.356 45.1527C157.618 45.1527 159.426 44.6834 160.78 43.7447C162.135 42.7906 162.812 41.6288 162.812 40.2592C162.812 39.1513 162.396 38.2203 161.565 37.4663C160.75 36.7122 159.495 36.1429 157.803 35.7582L151.801 34.4425C148.493 33.6884 146.046 32.4882 144.461 30.8416C142.892 29.1951 142.107 27.11 142.107 24.5863C142.107 22.4935 142.691 20.6623 143.861 19.0927C145.03 17.5231 146.646 16.2997 148.708 15.4226C150.77 14.5301 153.132 14.0838 155.795 14.0838C159.626 14.0838 162.642 14.9148 164.843 16.5767C167.043 18.2232 168.498 20.4315 169.205 23.2013Z" fill="black"/>
</svg>
